<?xml version="1.0" encoding="UTF-8" standalone="no"?>
<!DOCTYPE svg PUBLIC "-//W3C//DTD SVG 1.1//EN"
 "http://www.w3.org/Graphics/SVG/1.1/DTD/svg11.dtd">
<!-- Generated by graphviz version 14.1.1 (20251213.1925)
 -->
<!-- Title: type_erasure Pages: 1 -->
<svg width="516pt" height="1234pt"
 viewBox="0.00 0.00 516.00 1234.00" xmlns="http://www.w3.org/2000/svg" xmlns:xlink="http://www.w3.org/1999/xlink">
<g id="graph0" class="graph" transform="scale(1 1) rotate(0) translate(4 1230)">
<title>type_erasure</title>
<polygon fill="white" stroke="none" points="-4,4 -4,-1230 512,-1230 512,4 -4,4"/>
<g id="clust1" class="cluster">
<title>cluster_typed</title>
<path fill="#eafaf1" stroke="#27ae60" d="M123,-988.8C123,-988.8 331,-988.8 331,-988.8 337,-988.8 343,-994.8 343,-1000.8 343,-1000.8 343,-1206 343,-1206 343,-1212 337,-1218 331,-1218 331,-1218 123,-1218 123,-1218 117,-1218 111,-1212 111,-1206 111,-1206 111,-1000.8 111,-1000.8 111,-994.8 117,-988.8 123,-988.8"/>
<text xml:space="preserve" text-anchor="middle" x="154.14" y="-1204.1" font-family="Helvetica,sans-Serif" font-size="11.00" fill="#27ae60">TYPED ZONE</text>
</g>
<g id="clust2" class="cluster">
<title>cluster_erased</title>
<path fill="#fdedec" stroke="#c0392b" d="M88,-341.2C88,-341.2 488,-341.2 488,-341.2 494,-341.2 500,-347.2 500,-353.2 500,-353.2 500,-941 500,-941 500,-947 494,-953 488,-953 488,-953 88,-953 88,-953 82,-953 76,-947 76,-941 76,-941 76,-353.2 76,-353.2 76,-347.2 82,-341.2 88,-341.2"/>
<text xml:space="preserve" text-anchor="middle" x="183.5" y="-939.1" font-family="Helvetica,sans-Serif" font-size="11.00" fill="#c0392b">ERASED ZONE (Box&lt;dyn Any + Send&gt;)</text>
</g>
<g id="clust3" class="cluster">
<title>cluster_recovery</title>
<path fill="#eafaf1" stroke="#27ae60" d="M20,-8C20,-8 359,-8 359,-8 365,-8 371,-14 371,-20 371,-20 371,-293.4 371,-293.4 371,-299.4 365,-305.4 359,-305.4 359,-305.4 20,-305.4 20,-305.4 14,-305.4 8,-299.4 8,-293.4 8,-293.4 8,-20 8,-20 8,-14 14,-8 20,-8"/>
<text xml:space="preserve" text-anchor="middle" x="63.67" y="-291.5" font-family="Helvetica,sans-Serif" font-size="11.00" fill="#27ae60">RECOVERY ZONE</text>
</g>
<!-- user_send -->
<g id="node1" class="node">
<title>user_send</title>
<path fill="#d5f5e3" stroke="#27ae60" d="M292.27,-1188.8C292.27,-1188.8 161.73,-1188.8 161.73,-1188.8 155.73,-1188.8 149.73,-1182.8 149.73,-1176.8 149.73,-1176.8 149.73,-1135.2 149.73,-1135.2 149.73,-1129.2 155.73,-1123.2 161.73,-1123.2 161.73,-1123.2 292.27,-1123.2 292.27,-1123.2 298.27,-1123.2 304.27,-1129.2 304.27,-1135.2 304.27,-1135.2 304.27,-1176.8 304.27,-1176.8 304.27,-1182.8 298.27,-1188.8 292.27,-1188.8"/>
<text xml:space="preserve" text-anchor="start" x="166.16" y="-1172.8" font-family="Helvetica,sans-Serif" font-weight="bold" font-size="10.00">ctx.send::&lt;M&gt;(addr, msg)</text>
<text xml:space="preserve" text-anchor="start" x="183.74" y="-1152.7" font-family="Helvetica,sans-Serif" font-size="9.00" fill="#666666">actor.rs — Ctx::send()</text>
<text xml:space="preserve" text-anchor="start" x="161.73" y="-1133.9" font-family="Helvetica,sans-Serif" font-size="9.00">M: &#39;static + Clone + Send + Sync</text>
</g>
<!-- box_erase -->
<g id="node2" class="node">
<title>box_erase</title>
<path fill="#d5f5e3" stroke="#27ae60" d="M322.99,-1062.4C322.99,-1062.4 131.01,-1062.4 131.01,-1062.4 125.01,-1062.4 119.01,-1056.4 119.01,-1050.4 119.01,-1050.4 119.01,-1008.8 119.01,-1008.8 119.01,-1002.8 125.01,-996.8 131.01,-996.8 131.01,-996.8 322.99,-996.8 322.99,-996.8 328.99,-996.8 334.99,-1002.8 334.99,-1008.8 334.99,-1008.8 334.99,-1050.4 334.99,-1050.4 334.99,-1056.4 328.99,-1062.4 322.99,-1062.4"/>
<text xml:space="preserve" text-anchor="start" x="131.01" y="-1046.4" font-family="Helvetica,sans-Serif" font-weight="bold" font-size="10.00">Box::new(msg) → Box&lt;dyn Any + Send&gt;</text>
<text xml:space="preserve" text-anchor="start" x="169.23" y="-1026.3" font-family="Helvetica,sans-Serif" font-size="9.00" fill="#666666">actor.rs — Ctx::send() line 94</text>
<text xml:space="preserve" text-anchor="start" x="168.22" y="-1007.5" font-family="Helvetica,sans-Serif" font-size="9.00">Type information erased here</text>
</g>
<!-- user_send&#45;&gt;box_erase -->
<g id="edge1" class="edge">
<title>user_send&#45;&gt;box_erase</title>
<path fill="none" stroke="black" d="M227,-1122.96C227,-1108.02 227,-1090.01 227,-1073.87"/>
<polygon fill="black" stroke="black" points="230.5,-1074.04 227,-1064.04 223.5,-1074.04 230.5,-1074.04"/>
<text xml:space="preserve" text-anchor="middle" x="230.75" y="-1090.1" font-family="Helvetica,sans-Serif" font-size="9.00">M</text>
</g>
<!-- send_any -->
<g id="node3" class="node">
<title>send_any</title>
<path fill="#fadbd8" stroke="#c0392b" d="M311.46,-923.8C311.46,-923.8 142.54,-923.8 142.54,-923.8 136.54,-923.8 130.54,-917.8 130.54,-911.8 130.54,-911.8 130.54,-889 130.54,-889 130.54,-883 136.54,-877 142.54,-877 142.54,-877 311.46,-877 311.46,-877 317.46,-877 323.46,-883 323.46,-889 323.46,-889 323.46,-911.8 323.46,-911.8 323.46,-917.8 317.46,-923.8 311.46,-923.8"/>
<text xml:space="preserve" text-anchor="start" x="142.54" y="-907.8" font-family="Helvetica,sans-Serif" font-weight="bold" font-size="10.00">ContextInner::send_any(addr, msg)</text>
<text xml:space="preserve" text-anchor="start" x="147.23" y="-887.7" font-family="Helvetica,sans-Serif" font-size="9.00" fill="#666666">worker.rs — WorkerContext::send_any()</text>
</g>
<!-- box_erase&#45;&gt;send_any -->
<g id="edge12" class="edge">
<title>box_erase&#45;&gt;send_any</title>
<path fill="none" stroke="black" d="M227,-996.5C227,-986.72 227,-975.6 227,-964.5"/>
<polygon fill="black" stroke="black" points="230.5,-964.51 227,-954.51 223.5,-964.51 230.5,-964.51"/>
<text xml:space="preserve" text-anchor="middle" x="271.91" y="-963.7" font-family="Helvetica,sans-Serif" font-size="9.00">Box&lt;dyn Any + Send&gt;</text>
</g>
<!-- route -->
<g id="node4" class="node">
<title>route</title>
<polygon fill="#fef9e7" stroke="#d4ac0d" points="227,-826 111.39,-788.4 227,-750.8 342.61,-788.4 227,-826"/>
<text xml:space="preserve" text-anchor="start" x="195.06" y="-793.2" font-family="Helvetica,sans-Serif" font-weight="bold" font-size="10.00">Route lookup</text>
<text xml:space="preserve" text-anchor="start" x="179.2" y="-778" font-family="Helvetica,sans-Serif" font-size="8.00">address_map.lookup(addr)</text>
</g>
<!-- send_any&#45;&gt;route -->
<g id="edge2" class="edge">
<title>send_any&#45;&gt;route</title>
<path fill="none" stroke="black" d="M227,-876.61C227,-865.3 227,-851.19 227,-837.63"/>
<polygon fill="black" stroke="black" points="230.5,-837.97 227,-827.97 223.5,-837.97 230.5,-837.97"/>
</g>
<!-- pending -->
<g id="node5" class="node">
<title>pending</title>
<polygon fill="#e8daef" stroke="black" points="221.65,-569.8 84.35,-569.8 84.35,-533.8 227.65,-533.8 227.65,-563.8 221.65,-569.8"/>
<polyline fill="none" stroke="black" points="221.65,-569.8 221.65,-563.8"/>
<polyline fill="none" stroke="black" points="227.65,-563.8 221.65,-563.8"/>
<text xml:space="preserve" text-anchor="middle" x="156" y="-554.8" font-family="Helvetica,sans-Serif" font-size="10.00">pending_local</text>
<text xml:space="preserve" text-anchor="middle" x="156" y="-542.8" font-family="Helvetica,sans-Serif" font-size="10.00">Vec&lt;(Addr, Box&lt;dyn Any&gt;)&gt;</text>
</g>
<!-- route&#45;&gt;pending -->
<g id="edge3" class="edge">
<title>route&#45;&gt;pending</title>
<path fill="none" stroke="black" d="M196.71,-760.56C177.98,-743.96 157.49,-725.8 157.49,-725.8 157.49,-725.8 107,-679.2 107,-679.2 107,-679.2 107,-594.8 107,-594.8 107,-594.8 116.52,-586.64 127.17,-577.51"/>
<polygon fill="black" stroke="black" points="129.32,-580.28 134.64,-571.11 124.77,-574.96 129.32,-580.28"/>
<text xml:space="preserve" text-anchor="middle" x="183.24" y="-717.7" font-family="Helvetica,sans-Serif" font-size="9.00">same worker</text>
<text xml:space="preserve" text-anchor="middle" x="183.24" y="-706.9" font-family="Helvetica,sans-Serif" font-size="9.00">(wid == self)</text>
</g>
<!-- envelope -->
<g id="node6" class="node">
<title>envelope</title>
<path fill="#fadbd8" stroke="#c0392b" d="M283.12,-679.2C283.12,-679.2 140.88,-679.2 140.88,-679.2 134.88,-679.2 128.88,-673.2 128.88,-667.2 128.88,-667.2 128.88,-606.8 128.88,-606.8 128.88,-600.8 134.88,-594.8 140.88,-594.8 140.88,-594.8 283.12,-594.8 283.12,-594.8 289.12,-594.8 295.12,-600.8 295.12,-606.8 295.12,-606.8 295.12,-667.2 295.12,-667.2 295.12,-673.2 289.12,-679.2 283.12,-679.2"/>
<text xml:space="preserve" text-anchor="start" x="140.88" y="-663.2" font-family="Helvetica,sans-Serif" font-weight="bold" font-size="10.00">Envelope::new(addr, payload)</text>
<text xml:space="preserve" text-anchor="start" x="191.5" y="-643.1" font-family="Helvetica,sans-Serif" font-size="9.00" fill="#666666">delivery.rs</text>
<text xml:space="preserve" text-anchor="start" x="173.98" y="-624.3" font-family="Helvetica,sans-Serif" font-size="9.00">dest: ActorAddress</text>
<text xml:space="preserve" text-anchor="start" x="148.83" y="-605.5" font-family="Helvetica,sans-Serif" font-size="9.00">payload: Box&lt;dyn Any + Send&gt;</text>
</g>
<!-- route&#45;&gt;envelope -->
<g id="edge4" class="edge">
<title>route&#45;&gt;envelope</title>
<path fill="none" stroke="black" d="M223.41,-751.61C221.58,-733.42 219.32,-710.95 217.3,-690.8"/>
<polygon fill="black" stroke="black" points="220.81,-690.69 216.33,-681.09 213.84,-691.39 220.81,-690.69"/>
<text xml:space="preserve" text-anchor="middle" x="245.9" y="-717.7" font-family="Helvetica,sans-Serif" font-size="9.00">cross worker</text>
<text xml:space="preserve" text-anchor="middle" x="245.9" y="-706.9" font-family="Helvetica,sans-Serif" font-size="9.00">(wid != self)</text>
</g>
<!-- inbox_send -->
<g id="node7" class="node">
<title>inbox_send</title>
<path fill="#d1f2eb" stroke="#148f77" d="M480.29,-669.8C480.29,-669.8 349.71,-669.8 349.71,-669.8 343.71,-669.8 337.71,-663.8 337.71,-657.8 337.71,-657.8 337.71,-616.2 337.71,-616.2 337.71,-610.2 343.71,-604.2 349.71,-604.2 349.71,-604.2 480.29,-604.2 480.29,-604.2 486.29,-604.2 492.29,-610.2 492.29,-616.2 492.29,-616.2 492.29,-657.8 492.29,-657.8 492.29,-663.8 486.29,-669.8 480.29,-669.8"/>
<text xml:space="preserve" text-anchor="start" x="349.71" y="-653.8" font-family="Helvetica,sans-Serif" font-weight="bold" font-size="10.00">InboxRegistry::try_deliver()</text>
<text xml:space="preserve" text-anchor="start" x="356.72" y="-633.7" font-family="Helvetica,sans-Serif" font-size="9.00">SenderT::try_send_any(msg)</text>
<text xml:space="preserve" text-anchor="start" x="354.97" y="-614.9" font-family="Helvetica,sans-Serif" font-size="9.00" fill="#c0392b">downcast inside SenderT impl</text>
</g>
<!-- route&#45;&gt;inbox_send -->
<g id="edge5" class="edge">
<title>route&#45;&gt;inbox_send</title>
<path fill="none" stroke="black" d="M259.75,-761.38C289.01,-738.12 332.3,-703.72 365.73,-677.15"/>
<polygon fill="black" stroke="black" points="367.61,-680.13 373.26,-671.17 363.25,-674.65 367.61,-680.13"/>
<text xml:space="preserve" text-anchor="middle" x="357.65" y="-717.7" font-family="Helvetica,sans-Serif" font-size="9.00">not found</text>
<text xml:space="preserve" text-anchor="middle" x="357.65" y="-706.9" font-family="Helvetica,sans-Serif" font-size="9.00">(external inbox)</text>
</g>
<!-- mailbox -->
<g id="node9" class="node">
<title>mailbox</title>
<path fill="#fadbd8" stroke="black" d="M258.71,-389.2C258.71,-391.41 227.47,-393.2 189,-393.2 150.53,-393.2 119.29,-391.41 119.29,-389.2 119.29,-389.2 119.29,-353.2 119.29,-353.2 119.29,-350.99 150.53,-349.2 189,-349.2 227.47,-349.2 258.71,-350.99 258.71,-353.2 258.71,-353.2 258.71,-389.2 258.71,-389.2"/>
<path fill="none" stroke="black" d="M258.71,-389.2C258.71,-386.99 227.47,-385.2 189,-385.2 150.53,-385.2 119.29,-386.99 119.29,-389.2"/>
<text xml:space="preserve" text-anchor="middle" x="189" y="-374.2" font-family="Helvetica,sans-Serif" font-size="10.00">ActorSlot::mailbox</text>
<text xml:space="preserve" text-anchor="middle" x="189" y="-362.2" font-family="Helvetica,sans-Serif" font-size="10.00">VecDeque&lt;Box&lt;dyn Any&gt;&gt;</text>
</g>
<!-- pending&#45;&gt;mailbox -->
<g id="edge8" class="edge">
<title>pending&#45;&gt;mailbox</title>
<path fill="none" stroke="black" d="M157.41,-533.4C159.45,-508.27 162.98,-464.8 162.98,-464.8 162.98,-464.8 172.39,-431.29 179.9,-404.59"/>
<polygon fill="black" stroke="black" points="183.22,-405.71 182.56,-395.13 176.48,-403.81 183.22,-405.71"/>
<text xml:space="preserve" text-anchor="middle" x="188.99" y="-489.5" font-family="Helvetica,sans-Serif" font-size="9.00">Phase 5</text>
<text xml:space="preserve" text-anchor="middle" x="188.99" y="-478.7" font-family="Helvetica,sans-Serif" font-size="9.00">local delivery</text>
</g>
<!-- channel -->
<g id="node8" class="node">
<title>channel</title>
<path fill="#fadbd8" stroke="black" d="M371.9,-504.8C371.9,-507.01 341.46,-508.8 304,-508.8 266.54,-508.8 236.1,-507.01 236.1,-504.8 236.1,-504.8 236.1,-468.8 236.1,-468.8 236.1,-466.59 266.54,-464.8 304,-464.8 341.46,-464.8 371.9,-466.59 371.9,-468.8 371.9,-468.8 371.9,-504.8 371.9,-504.8"/>
<path fill="none" stroke="black" d="M371.9,-504.8C371.9,-502.59 341.46,-500.8 304,-500.8 266.54,-500.8 236.1,-502.59 236.1,-504.8"/>
<text xml:space="preserve" text-anchor="middle" x="304" y="-489.8" font-family="Helvetica,sans-Serif" font-size="10.00">HybridChannel</text>
<text xml:space="preserve" text-anchor="middle" x="304" y="-477.8" font-family="Helvetica,sans-Serif" font-size="10.00">(ArrayQueue + SegQueue)</text>
</g>
<!-- envelope&#45;&gt;channel -->
<g id="edge6" class="edge">
<title>envelope&#45;&gt;channel</title>
<path fill="none" stroke="black" d="M237.87,-594.32C252.74,-570.38 271.1,-540.8 284.7,-518.9"/>
<polygon fill="black" stroke="black" points="287.67,-520.75 289.97,-510.41 281.72,-517.06 287.67,-520.75"/>
<text xml:space="preserve" text-anchor="middle" x="291.5" y="-549.1" font-family="Helvetica,sans-Serif" font-size="9.00">try_send</text>
</g>
<!-- channel&#45;&gt;mailbox -->
<g id="edge7" class="edge">
<title>channel&#45;&gt;mailbox</title>
<path fill="none" stroke="black" d="M282.37,-464.43C264.38,-446.66 238.59,-421.19 218.67,-401.51"/>
<polygon fill="black" stroke="black" points="221.18,-399.07 211.61,-394.54 216.26,-404.05 221.18,-399.07"/>
<text xml:space="preserve" text-anchor="middle" x="290.06" y="-431.7" font-family="Helvetica,sans-Serif" font-size="9.00">transfer_rx.pop()</text>
<text xml:space="preserve" text-anchor="middle" x="290.06" y="-420.9" font-family="Helvetica,sans-Serif" font-size="9.00">→ pool.deliver()</text>
</g>
<!-- handle_any -->
<g id="node10" class="node">
<title>handle_any</title>
<path fill="#d5f5e3" stroke="#27ae60" d="M265.96,-276.2C265.96,-276.2 112.04,-276.2 112.04,-276.2 106.04,-276.2 100.04,-270.2 100.04,-264.2 100.04,-264.2 100.04,-241.4 100.04,-241.4 100.04,-235.4 106.04,-229.4 112.04,-229.4 112.04,-229.4 265.96,-229.4 265.96,-229.4 271.96,-229.4 277.96,-235.4 277.96,-241.4 277.96,-241.4 277.96,-264.2 277.96,-264.2 277.96,-270.2 271.96,-276.2 265.96,-276.2"/>
<text xml:space="preserve" text-anchor="start" x="112.04" y="-260.2" font-family="Helvetica,sans-Serif" font-weight="bold" font-size="10.00">Actor&lt;A&gt;::handle_any(ctx, msg)</text>
<text xml:space="preserve" text-anchor="start" x="152.98" y="-240.1" font-family="Helvetica,sans-Serif" font-size="9.00" fill="#666666">actor.rs line 56&#45;61</text>
</g>
<!-- mailbox&#45;&gt;handle_any -->
<g id="edge13" class="edge">
<title>mailbox&#45;&gt;handle_any</title>
<path fill="none" stroke="black" d="M189,-348.85C189,-339.58 189,-328.19 189,-316.56"/>
<polygon fill="black" stroke="black" points="192.5,-316.91 189,-306.91 185.5,-316.91 192.5,-316.91"/>
<text xml:space="preserve" text-anchor="middle" x="211.01" y="-316.1" font-family="Helvetica,sans-Serif" font-size="9.00">pop_front()</text>
</g>
<!-- downcast -->
<g id="node11" class="node">
<title>downcast</title>
<polygon fill="#fef9e7" stroke="#d4ac0d" points="189,-178.4 25.08,-160.4 189,-142.4 352.92,-160.4 189,-178.4"/>
<text xml:space="preserve" text-anchor="start" x="112.61" y="-158.4" font-family="Helvetica,sans-Serif" font-weight="bold" font-size="10.00">msg.downcast::&lt;A::Incoming&gt;()</text>
</g>
<!-- handle_any&#45;&gt;downcast -->
<g id="edge9" class="edge">
<title>handle_any&#45;&gt;downcast</title>
<path fill="none" stroke="black" d="M189,-228.99C189,-217.18 189,-202.64 189,-190.07"/>
<polygon fill="black" stroke="black" points="192.5,-190.3 189,-180.3 185.5,-190.3 192.5,-190.3"/>
</g>
<!-- ok_path -->
<g id="node12" class="node">
<title>ok_path</title>
<path fill="#d5f5e3" stroke="#27ae60" d="M147.53,-72.2C147.53,-72.2 28.47,-72.2 28.47,-72.2 22.47,-72.2 16.47,-66.2 16.47,-60.2 16.47,-60.2 16.47,-37.4 16.47,-37.4 16.47,-31.4 22.47,-25.4 28.47,-25.4 28.47,-25.4 147.53,-25.4 147.53,-25.4 153.53,-25.4 159.53,-31.4 159.53,-37.4 159.53,-37.4 159.53,-60.2 159.53,-60.2 159.53,-66.2 153.53,-72.2 147.53,-72.2"/>
<text xml:space="preserve" text-anchor="start" x="36.33" y="-56.2" font-family="Helvetica,sans-Serif" font-weight="bold" font-size="10.00">A::handle(ctx, *typed)</text>
<text xml:space="preserve" text-anchor="start" x="28.47" y="-36.1" font-family="Helvetica,sans-Serif" font-size="9.00">Fully typed handler invocation</text>
</g>
<!-- downcast&#45;&gt;ok_path -->
<g id="edge10" class="edge">
<title>downcast&#45;&gt;ok_path</title>
<path fill="none" stroke="#27ae60" d="M174.53,-143.7C159.45,-127.33 135.42,-101.26 116.51,-80.73"/>
<polygon fill="#27ae60" stroke="#27ae60" points="119.13,-78.42 109.78,-73.44 113.98,-83.16 119.13,-78.42"/>
<text xml:space="preserve" text-anchor="middle" x="167.3" y="-109.3" font-family="Helvetica,sans-Serif" font-size="9.00">Ok(typed)</text>
</g>
<!-- err_path -->
<g id="node13" class="node">
<title>err_path</title>
<path fill="#fadbd8" stroke="#c0392b" d="M351.28,-81.6C351.28,-81.6 214.72,-81.6 214.72,-81.6 208.72,-81.6 202.72,-75.6 202.72,-69.6 202.72,-69.6 202.72,-28 202.72,-28 202.72,-22 208.72,-16 214.72,-16 214.72,-16 351.28,-16 351.28,-16 357.28,-16 363.28,-22 363.28,-28 363.28,-28 363.28,-69.6 363.28,-69.6 363.28,-75.6 357.28,-81.6 351.28,-81.6"/>
<text xml:space="preserve" text-anchor="start" x="256.89" y="-65.6" font-family="Helvetica,sans-Serif" font-weight="bold" font-size="10.00">Silent drop</text>
<text xml:space="preserve" text-anchor="start" x="214.72" y="-45.5" font-family="Helvetica,sans-Serif" font-size="9.00">Wrong type — message discarded</text>
<text xml:space="preserve" text-anchor="start" x="226.47" y="-26.7" font-family="Helvetica,sans-Serif" font-size="9.00" fill="#c0392b">type_mismatches counter++</text>
</g>
<!-- downcast&#45;&gt;err_path -->
<g id="edge11" class="edge">
<title>downcast&#45;&gt;err_path</title>
<path fill="none" stroke="#c0392b" d="M202.47,-143.7C214.39,-129.8 232.31,-108.9 248.23,-90.34"/>
<polygon fill="#c0392b" stroke="#c0392b" points="250.77,-92.76 254.62,-82.89 245.45,-88.2 250.77,-92.76"/>
<text xml:space="preserve" text-anchor="middle" x="244.68" y="-109.3" font-family="Helvetica,sans-Serif" font-size="9.00">Err(_)</text>
</g>
</g>
</svg>
